<svg width="72" height="55" viewBox="0 0 72 55" fill="none" xmlns="http://www.w3.org/2000/svg">
<g clip-path="url(#clip0_4_4)">
<path d="M16.3305 54.415V26.6529L7.72068 18.7762L0 14.4051V49.5157C0 52.2265 2.19632 54.415 4.89928 54.415H16.3305V54.415Z" fill="#4285F4"/>
<path d="M55.5236 54.415H66.9549C69.666 54.415 71.8542 52.2184 71.8542 49.5157V14.4054L63.1093 19.4119L55.5236 26.6529V54.415V54.415Z" fill="#34A853"/>
<path d="M16.3306 26.6529L15.159 15.8055L16.3306 5.42337L35.9271 20.1209L55.5237 5.42337L56.8344 15.2449L55.5237 26.6529L35.9271 41.3505L16.3306 26.6529Z" fill="#EA4335"/>
<path d="M55.5236 5.42335V26.6529L71.8542 14.4051V7.87285C71.8542 1.81436 64.9382 -1.63941 60.0965 1.994L55.5236 5.42335Z" fill="#FBBC04"/>
<path d="M0 14.4051L7.51073 20.0384L16.3305 26.6529V5.42336L11.7577 1.994C6.90755 -1.63969 0 1.81437 0 7.87257V14.4048V14.4051Z" fill="#C5221F"/>
</g>
<defs>
<clipPath id="clip0_4_4">
<rect width="71.8542" height="54.1713" fill="white" transform="translate(0 0.510315)"/>
</clipPath>
</defs>
</svg>
