<svg width="72" height="72" viewBox="0 0 72 72" fill="none" xmlns="http://www.w3.org/2000/svg">
<g clip-path="url(#clip0_4_2)">
<path d="M57.0871 59.5151H47.1598V43.9682C47.1598 40.2609 47.0936 35.4884 41.9966 35.4884C36.8261 35.4884 36.0349 39.5278 36.0349 43.6983V59.514H26.1079V27.5434H35.6379V31.9126H35.7713C36.7251 30.2818 38.1033 28.9402 39.7591 28.0308C41.415 27.1213 43.2865 26.678 45.1744 26.748C55.2362 26.748 57.0913 33.3664 57.0913 41.9765L57.0871 59.5151V59.5151ZM14.9063 23.1735C11.7245 23.174 9.14477 20.595 9.14424 17.4133C9.14372 14.2316 11.7224 11.6518 14.9042 11.6513C18.0859 11.6505 20.6657 14.2295 20.6662 17.4112C20.6665 18.9391 20.0598 20.4046 18.9796 21.4852C17.8994 22.5658 16.4342 23.1731 14.9063 23.1735V23.1735ZM19.87 59.5153H9.93228V27.5434H19.8698V59.5151L19.87 59.5153ZM62.0362 2.43166H4.9439C2.24557 2.40131 0.0327325 4.56285 -0.000244141 7.26118V64.5917C0.0316857 67.2913 2.24426 69.4549 4.94364 69.4267H62.0362C64.7414 69.4602 66.9626 67.2965 67 64.5917V7.25673C66.9615 4.55316 64.7401 2.39188 62.0362 2.42722" fill="#0A66C2"/>
</g>
<defs>
<clipPath id="clip0_4_2">
<rect width="71.8542" height="71.8542" fill="white"/>
</clipPath>
</defs>
</svg>
